<?xml version="1.0" encoding="UTF-8"?>
<svg xmlns="http://www.w3.org/2000/svg" viewBox="0 0 1728 263.33">
  <defs>
    <style>.cls-2 {
        fill: none;
        stroke: #fbe953;
        stroke-miterlimit: 10;
      }
    </style>
  </defs>
  <g>
    <g>
      <g>
        <path class="cls-2" d="M589,60.46c24.9,0,24.9,34.87,49.81,34.87s24.91-34.87,49.81-34.87,24.91,34.87,49.81,34.87,24.91-34.87,49.82-34.87,24.91,34.87,49.82,34.87"/>
        <path class="cls-2" d="M589,93.74c24.9,0,24.9,34.87,49.81,34.87s24.91-34.87,49.81-34.87,24.91,34.87,49.81,34.87,24.91-34.87,49.82-34.87,24.91,34.87,49.82,34.87"/>
      </g>
      <g>
        <path class="cls-2" d="M996.73,130.87c24.9,0,24.9,34.87,49.81,34.87s24.91-34.87,49.81-34.87,24.91,34.87,49.81,34.87,24.91-34.87,49.82-34.87,24.91,34.87,49.82,34.87"/>
        <path class="cls-2" d="M996.73,164.16c24.9,0,24.9,34.87,49.81,34.87s24.91-34.87,49.81-34.87,24.91,34.87,49.81,34.87,24.91-34.87,49.82-34.87,24.91,34.87,49.82,34.87"/>
      </g>
      <g>
        <path class="cls-2" d="M134.89,128.71c24.9,0,24.9,34.87,49.81,34.87s24.91-34.87,49.81-34.87,24.91,34.87,49.81,34.87,24.91-34.87,49.82-34.87,24.91,34.87,49.82,34.87"/>
        <path class="cls-2" d="M134.89,161.99c24.9,0,24.9,34.87,49.81,34.87s24.91-34.87,49.81-34.87,24.91,34.87,49.81,34.87,24.91-34.87,49.82-34.87,24.91,34.87,49.82,34.87"/>
      </g>
      <g>
        <path class="cls-2" d="M1381.31,60.46c24.9,0,24.9,34.87,49.81,34.87s24.91-34.87,49.81-34.87,24.91,34.87,49.81,34.87,24.91-34.87,49.82-34.87,24.91,34.87,49.82,34.87"/>
        <path class="cls-2" d="M1381.31,93.74c24.9,0,24.9,34.87,49.81,34.87s24.91-34.87,49.81-34.87,24.91,34.87,49.81,34.87,24.91-34.87,49.82-34.87,24.91,34.87,49.82,34.87"/>
      </g>
    </g>
  </g>
</svg>